<svg width="39" height="40" viewBox="0 0 39 40" fill="none" xmlns="http://www.w3.org/2000/svg">
<rect width="39" height="40" rx="6" fill="#2871FF"/>
<path d="M9.5 15.1C9.5 13.1398 9.5 12.1597 9.88148 11.411C10.217 10.7525 10.7525 10.217 11.411 9.88148C12.1597 9.5 13.1398 9.5 15.1 9.5H24.9C26.8602 9.5 27.8403 9.5 28.589 9.88148C29.2475 10.217 29.783 10.7525 30.1185 11.411C30.5 12.1597 30.5 13.1398 30.5 15.1V21.75C30.5 23.3808 30.5 24.1962 30.2336 24.8394C29.8783 25.697 29.197 26.3783 28.3394 26.7336C27.6962 27 26.8808 27 25.25 27C24.68 27 24.395 27 24.1306 27.0624C23.778 27.1456 23.4497 27.3098 23.1716 27.5419C22.963 27.716 22.792 27.944 22.45 28.4L20.7467 30.6711C20.4934 31.0089 20.3667 31.1777 20.2114 31.2381C20.0754 31.291 19.9246 31.291 19.7886 31.2381C19.6333 31.1777 19.5066 31.0089 19.2533 30.6711L17.55 28.4C17.208 27.944 17.037 27.716 16.8284 27.5419C16.5503 27.3098 16.222 27.1456 15.8694 27.0624C15.605 27 15.32 27 14.75 27C13.1192 27 12.3038 27 11.6606 26.7336C10.803 26.3783 10.1217 25.697 9.76642 24.8394C9.5 24.1962 9.5 23.3808 9.5 21.75V15.1Z" stroke="white" stroke-width="2" stroke-linecap="round" stroke-linejoin="round"/>
<path fill-rule="evenodd" clip-rule="evenodd" d="M19.9968 15.719C19.0638 14.6585 17.5079 14.3733 16.3389 15.3444C15.1698 16.3155 15.0053 17.9391 15.9233 19.0876C16.4692 19.7706 17.8063 20.9953 18.8006 21.8759C19.211 22.2395 19.4162 22.4212 19.6633 22.4949C19.8746 22.558 20.119 22.558 20.3304 22.4949C20.5774 22.4212 20.7826 22.2395 21.193 21.8759C22.1873 20.9953 23.5244 19.7706 24.0703 19.0876C24.9884 17.9391 24.8439 16.3052 23.6547 15.3444C22.4656 14.3835 20.9298 14.6585 19.9968 15.719Z" stroke="white" stroke-width="2" stroke-linecap="round" stroke-linejoin="round"/>
</svg>
